<svg xmlns="http://www.w3.org/2000/svg" xmlns:xlink="http://www.w3.org/1999/xlink" width="150" zoomAndPan="magnify" viewBox="0 0 112.5 112.499997" height="150" preserveAspectRatio="xMidYMid meet" version="1.0"><defs><clipPath id="id1"><path d="M 14.78125 14.78125 L 98.03125 14.78125 L 98.03125 98.03125 L 14.78125 98.03125 Z M 14.78125 14.78125 " clip-rule="nonzero"/></clipPath></defs><g clip-path="url(#id1)"><path fill="#2ac0af" d="M 98.0625 56.429688 C 98.0625 57.792969 97.996094 59.152344 97.863281 60.511719 C 97.726562 61.867188 97.527344 63.214844 97.261719 64.550781 C 96.996094 65.890625 96.664062 67.210938 96.269531 68.515625 C 95.875 69.820312 95.414062 71.101562 94.894531 72.363281 C 94.371094 73.621094 93.789062 74.851562 93.144531 76.054688 C 92.503906 77.257812 91.804688 78.425781 91.046875 79.558594 C 90.289062 80.691406 89.476562 81.785156 88.613281 82.839844 C 87.746094 83.894531 86.832031 84.902344 85.867188 85.867188 C 84.902344 86.832031 83.894531 87.746094 82.839844 88.613281 C 81.785156 89.476562 80.691406 90.289062 79.558594 91.046875 C 78.425781 91.804688 77.257812 92.503906 76.054688 93.144531 C 74.851562 93.789062 73.621094 94.371094 72.363281 94.894531 C 71.101562 95.414062 69.820312 95.875 68.515625 96.269531 C 67.210938 96.664062 65.890625 96.996094 64.550781 97.261719 C 63.214844 97.527344 61.867188 97.726562 60.511719 97.863281 C 59.152344 97.996094 57.792969 98.0625 56.429688 98.0625 C 55.066406 98.0625 53.707031 97.996094 52.347656 97.863281 C 50.992188 97.726562 49.644531 97.527344 48.308594 97.261719 C 46.96875 96.996094 45.648438 96.664062 44.34375 96.269531 C 43.039062 95.875 41.757812 95.414062 40.496094 94.894531 C 39.238281 94.371094 38.003906 93.789062 36.804688 93.144531 C 35.601562 92.503906 34.433594 91.804688 33.300781 91.046875 C 32.164062 90.289062 31.070312 89.476562 30.015625 88.613281 C 28.964844 87.746094 27.953125 86.832031 26.988281 85.867188 C 26.027344 84.902344 25.109375 83.894531 24.246094 82.839844 C 23.382812 81.785156 22.570312 80.691406 21.8125 79.558594 C 21.054688 78.425781 20.355469 77.257812 19.710938 76.054688 C 19.070312 74.851562 18.488281 73.621094 17.964844 72.363281 C 17.441406 71.101562 16.984375 69.820312 16.589844 68.515625 C 16.191406 67.210938 15.863281 65.890625 15.597656 64.550781 C 15.328125 63.214844 15.128906 61.867188 14.996094 60.511719 C 14.863281 59.152344 14.796875 57.792969 14.796875 56.429688 C 14.796875 55.066406 14.863281 53.707031 14.996094 52.347656 C 15.128906 50.992188 15.328125 49.644531 15.597656 48.308594 C 15.863281 46.96875 16.191406 45.648438 16.589844 44.34375 C 16.984375 43.039062 17.441406 41.757812 17.964844 40.496094 C 18.488281 39.238281 19.070312 38.003906 19.710938 36.804688 C 20.355469 35.601562 21.054688 34.433594 21.8125 33.300781 C 22.570312 32.164062 23.382812 31.070312 24.246094 30.015625 C 25.109375 28.964844 26.027344 27.953125 26.988281 26.988281 C 27.953125 26.027344 28.964844 25.109375 30.015625 24.246094 C 31.070312 23.382812 32.164062 22.570312 33.300781 21.8125 C 34.433594 21.054688 35.601562 20.355469 36.804688 19.710938 C 38.003906 19.070312 39.238281 18.488281 40.496094 17.964844 C 41.757812 17.441406 43.039062 16.984375 44.34375 16.589844 C 45.648438 16.191406 46.96875 15.863281 48.308594 15.597656 C 49.644531 15.328125 50.992188 15.128906 52.347656 14.996094 C 53.707031 14.863281 55.066406 14.796875 56.429688 14.796875 C 57.792969 14.796875 59.152344 14.863281 60.511719 14.996094 C 61.867188 15.128906 63.214844 15.328125 64.550781 15.597656 C 65.890625 15.863281 67.210938 16.191406 68.515625 16.589844 C 69.820312 16.984375 71.101562 17.441406 72.363281 17.964844 C 73.621094 18.488281 74.851562 19.070312 76.054688 19.710938 C 77.257812 20.355469 78.425781 21.054688 79.558594 21.8125 C 80.691406 22.570312 81.785156 23.382812 82.839844 24.246094 C 83.894531 25.109375 84.902344 26.027344 85.867188 26.988281 C 86.832031 27.953125 87.746094 28.964844 88.613281 30.015625 C 89.476562 31.070312 90.289062 32.164062 91.046875 33.300781 C 91.804688 34.433594 92.503906 35.601562 93.144531 36.804688 C 93.789062 38.003906 94.371094 39.238281 94.894531 40.496094 C 95.414062 41.757812 95.875 43.039062 96.269531 44.34375 C 96.664062 45.648438 96.996094 46.96875 97.261719 48.308594 C 97.527344 49.644531 97.726562 50.992188 97.863281 52.347656 C 97.996094 53.707031 98.0625 55.066406 98.0625 56.429688 Z M 98.0625 56.429688 " fill-opacity="1" fill-rule="nonzero"/></g><path fill="#fefefe" d="M 39.636719 44.175781 L 43.441406 75.554688 C 43.898438 79.308594 47.089844 82.136719 50.871094 82.136719 L 61.988281 82.136719 C 65.769531 82.136719 68.960938 79.308594 69.414062 75.554688 L 73.21875 44.175781 Z M 61.988281 83.3125 L 50.871094 83.3125 C 48.742188 83.3125 46.699219 82.542969 45.121094 81.144531 C 43.542969 79.742188 42.53125 77.808594 42.277344 75.699219 L 38.394531 43.660156 C 38.371094 43.492188 38.425781 43.324219 38.535156 43.199219 C 38.648438 43.074219 38.808594 43 38.976562 43 L 73.882812 43 C 74.050781 43 74.210938 43.074219 74.320312 43.199219 C 74.433594 43.324219 74.484375 43.492188 74.464844 43.660156 L 70.582031 75.699219 C 70.324219 77.808594 69.316406 79.742188 67.734375 81.144531 C 66.15625 82.542969 64.117188 83.3125 61.988281 83.3125 Z M 61.988281 83.3125 " fill-opacity="1" fill-rule="evenodd"/><path fill="#fefefe" d="M 72.375 56.601562 C 72.226562 56.601562 72.074219 56.542969 71.960938 56.429688 L 59.535156 44.003906 C 59.308594 43.773438 59.308594 43.402344 59.535156 43.175781 C 59.765625 42.945312 60.136719 42.945312 60.367188 43.175781 L 72.789062 55.597656 C 73.019531 55.828125 73.019531 56.199219 72.789062 56.429688 C 72.675781 56.542969 72.527344 56.601562 72.375 56.601562 Z M 72.375 56.601562 " fill-opacity="1" fill-rule="evenodd"/><path fill="#fefefe" d="M 71.019531 67.789062 C 70.871094 67.789062 70.71875 67.730469 70.605469 67.617188 L 46.992188 44.003906 C 46.765625 43.773438 46.765625 43.402344 46.992188 43.175781 C 47.222656 42.945312 47.59375 42.945312 47.824219 43.175781 L 71.433594 66.785156 C 71.664062 67.015625 71.664062 67.386719 71.433594 67.617188 C 71.320312 67.730469 71.171875 67.789062 71.019531 67.789062 Z M 71.019531 67.789062 " fill-opacity="1" fill-rule="evenodd"/><path fill="#fefefe" d="M 71.019531 67.789062 C 70.871094 67.789062 70.71875 67.730469 70.605469 67.617188 L 46.992188 44.003906 C 46.765625 43.773438 46.765625 43.402344 46.992188 43.175781 C 47.222656 42.945312 47.59375 42.945312 47.824219 43.175781 L 71.433594 66.785156 C 71.664062 67.015625 71.664062 67.386719 71.433594 67.617188 C 71.320312 67.730469 71.171875 67.789062 71.019531 67.789062 Z M 71.019531 67.789062 " fill-opacity="1" fill-rule="evenodd"/><path fill="#fefefe" d="M 69.320312 78.628906 C 69.167969 78.628906 69.019531 78.574219 68.902344 78.457031 L 39.128906 48.683594 C 38.898438 48.453125 38.898438 48.082031 39.128906 47.851562 C 39.355469 47.625 39.730469 47.625 39.957031 47.851562 L 69.734375 77.628906 C 69.960938 77.855469 69.960938 78.230469 69.734375 78.457031 C 69.617188 78.574219 69.46875 78.628906 69.320312 78.628906 Z M 69.320312 78.628906 " fill-opacity="1" fill-rule="evenodd"/><path fill="#fefefe" d="M 61.457031 83.3125 C 61.304688 83.3125 61.15625 83.253906 61.042969 83.140625 L 40.859375 62.957031 C 40.628906 62.726562 40.628906 62.355469 40.859375 62.128906 C 41.085938 61.898438 41.460938 61.898438 41.6875 62.128906 L 61.871094 82.3125 C 62.101562 82.539062 62.101562 82.910156 61.871094 83.140625 C 61.757812 83.253906 61.605469 83.3125 61.457031 83.3125 Z M 61.457031 83.3125 " fill-opacity="1" fill-rule="evenodd"/><path fill="#fefefe" d="M 39.765625 50.683594 C 39.613281 50.683594 39.464844 50.625 39.347656 50.511719 C 39.121094 50.28125 39.121094 49.910156 39.347656 49.679688 L 45.855469 43.175781 C 46.085938 42.945312 46.457031 42.945312 46.6875 43.175781 C 46.914062 43.402344 46.914062 43.773438 46.6875 44.003906 L 40.179688 50.511719 C 40.066406 50.625 39.914062 50.683594 39.765625 50.683594 Z M 39.765625 50.683594 " fill-opacity="1" fill-rule="evenodd"/><path fill="#fefefe" d="M 41.121094 61.871094 C 40.96875 61.871094 40.820312 61.8125 40.707031 61.699219 C 40.476562 61.46875 40.476562 61.097656 40.707031 60.867188 L 58.398438 43.175781 C 58.628906 42.945312 59 42.945312 59.230469 43.175781 C 59.460938 43.402344 59.460938 43.773438 59.230469 44.003906 L 41.535156 61.699219 C 41.421875 61.8125 41.269531 61.871094 41.121094 61.871094 Z M 41.121094 61.871094 " fill-opacity="1" fill-rule="evenodd"/><path fill="#fefefe" d="M 42.476562 73.058594 C 42.328125 73.058594 42.175781 73 42.0625 72.886719 C 41.832031 72.65625 41.832031 72.285156 42.0625 72.054688 L 70.945312 43.175781 C 71.171875 42.945312 71.546875 42.945312 71.773438 43.175781 C 72.003906 43.402344 72.003906 43.773438 71.773438 44.003906 L 42.890625 72.886719 C 42.777344 73 42.628906 73.058594 42.476562 73.058594 Z M 42.476562 73.058594 " fill-opacity="1" fill-rule="evenodd"/><path fill="#fefefe" d="M 46.226562 81.851562 C 46.074219 81.851562 45.925781 81.796875 45.808594 81.683594 C 45.582031 81.453125 45.582031 81.082031 45.808594 80.851562 L 72.085938 54.578125 C 72.3125 54.347656 72.6875 54.347656 72.914062 54.578125 C 73.144531 54.804688 73.144531 55.179688 72.914062 55.40625 L 46.640625 81.683594 C 46.527344 81.796875 46.375 81.851562 46.226562 81.851562 Z M 46.226562 81.851562 " fill-opacity="1" fill-rule="evenodd"/><path fill="#fefefe" d="M 59.382812 81.238281 C 59.234375 81.238281 59.082031 81.183594 58.96875 81.066406 C 58.738281 80.839844 58.738281 80.464844 58.96875 80.238281 L 70.355469 68.851562 C 70.582031 68.621094 70.957031 68.621094 71.183594 68.851562 C 71.414062 69.078125 71.414062 69.453125 71.183594 69.679688 L 59.796875 81.066406 C 59.683594 81.183594 59.535156 81.238281 59.382812 81.238281 Z M 59.382812 81.238281 " fill-opacity="1" fill-rule="evenodd"/><path fill="#fefefe" d="M 62.410156 38.929688 C 62.085938 38.929688 61.824219 38.667969 61.824219 38.34375 L 61.824219 34.660156 C 61.824219 33.890625 61.199219 33.261719 60.425781 33.261719 L 52.429688 33.261719 C 51.660156 33.261719 51.035156 33.890625 51.035156 34.660156 L 51.035156 38.34375 C 51.035156 38.667969 50.769531 38.929688 50.445312 38.929688 C 50.121094 38.929688 49.859375 38.667969 49.859375 38.34375 L 49.859375 34.660156 C 49.859375 33.242188 51.011719 32.089844 52.429688 32.089844 L 60.425781 32.089844 C 61.84375 32.089844 62.996094 33.242188 62.996094 34.660156 L 62.996094 38.34375 C 62.996094 38.667969 62.734375 38.929688 62.410156 38.929688 Z M 64.953125 38.929688 C 64.628906 38.929688 64.367188 38.667969 64.367188 38.34375 L 64.367188 34.660156 C 64.367188 32.488281 62.601562 30.71875 60.425781 30.71875 L 52.429688 30.71875 C 50.257812 30.71875 48.488281 32.488281 48.488281 34.660156 L 48.488281 38.34375 C 48.488281 38.667969 48.226562 38.929688 47.902344 38.929688 C 47.578125 38.929688 47.316406 38.667969 47.316406 38.34375 L 47.316406 34.660156 C 47.316406 31.839844 49.609375 29.546875 52.429688 29.546875 L 60.425781 29.546875 C 63.246094 29.546875 65.542969 31.839844 65.542969 34.660156 L 65.542969 38.34375 C 65.542969 38.667969 65.277344 38.929688 64.953125 38.929688 Z M 64.953125 38.929688 " fill-opacity="1" fill-rule="evenodd"/><path fill="#fefefe" d="M 38.976562 38.929688 C 37.910156 38.929688 37.042969 39.796875 37.042969 40.863281 L 37.042969 41.070312 C 37.042969 42.136719 37.910156 43 38.976562 43 L 73.882812 43 C 74.945312 43 75.8125 42.136719 75.8125 41.070312 L 75.8125 40.863281 C 75.8125 39.796875 74.945312 38.929688 73.882812 38.929688 Z M 73.882812 44.175781 L 38.976562 44.175781 C 37.261719 44.175781 35.871094 42.78125 35.871094 41.070312 L 35.871094 40.863281 C 35.871094 39.148438 37.261719 37.757812 38.976562 37.757812 L 73.882812 37.757812 C 75.59375 37.757812 76.988281 39.148438 76.988281 40.863281 L 76.988281 41.070312 C 76.988281 42.78125 75.59375 44.175781 73.882812 44.175781 Z M 73.882812 44.175781 " fill-opacity="1" fill-rule="evenodd"/></svg>